<svg xmlns="http://www.w3.org/2000/svg" width="207" height="56" viewBox="0 0 207 56">
    <g fill="none" fill-rule="evenodd">
        <path fill="#F4A13C" d="M74.904 6.308l-1.02 1.735-1.735-.991-1.02 1.735-1.736-1.02 1.021-1.735-1.764-.993 1.019-1.762 1.735 1.019 1.021-1.735 1.735.99-1.019 1.737z"/>
        <path fill="#10A554" d="M35.063 33.405c10.243-8.07 25.663-11.994 41.636-8.279 1.178.273 2.355.557 3.523.873-5.197-1.533-24.966-7.33-26.151-7.69-1.165.961-13.031 10.802-15.015 12.351l-3.993 2.745z"/>
        <path fill="#F4A13C" d="M65.896 7.627c-4.862 8.215-5.452 8.473-10.277 16.687-4.937-3.648-9.91-7.257-14.846-10.867 10.94 8.657 18.934 5.157 25.123-5.82"/>
        <path fill="#10A554" d="M53.4 16.123c1.215 0 2.174-.995 2.174-2.247 0-1.216-.959-2.21-2.174-2.21-1.252 0-2.247.994-2.247 2.21 0 1.252.995 2.247 2.247 2.247"/>
        <path fill="#F4A13C" d="M66.54 7.182l6.507 3.745 3.732-6.494L70.272.652l-3.731 6.53zm6.682 4.395l-7.328-4.22L70.098 0l7.328 4.259-4.204 7.318zM20.784 48.208c-.774.243-1.361.402-1.763.474-.4.072-.802.105-1.202.105-1.591 0-2.736-.472-3.438-1.417-.487-.658-.731-1.483-.731-2.47 0-1.104.377-2.009 1.128-2.718.753-.71 1.729-1.064 2.934-1.064a8.408 8.408 0 0 1 3.029.579v-3.974l-.344-.065a38.717 38.717 0 0 0-1.461-.259 16.17 16.17 0 0 0-2.214-.15c-3.107 0-5.473.817-7.09 2.449-1.36 1.376-2.042 3.152-2.042 5.33 0 2.334.766 4.198 2.298 5.586 1.604 1.46 3.834 2.194 6.684 2.194a16.026 16.026 0 0 0 4.212-.603v-3.997zm12.376-3.654l5.07-7.046h-6.553l-3.544 5.908h-.087v-5.908h-5.758v15.041h5.758v-6.383h.087l3.695 6.383h6.877l-5.545-7.995zm18.5-7.046h-7.755l-5.266 15.041h5.76l1.01-3.244h4.512l1.03 3.244h6.06l-5.35-15.041zm-5.585 8.27l1.547-4.704h.085l1.568 4.704h-3.2zm27.05-8.27h-5.757v5.198h-3.846v-5.198h-5.758v15.041h5.758v-5.545h3.846v5.545h5.758V37.508zm19.706 11.023H91.24V37.508H77.854v4.811c0 1.261-.092 2.271-.28 3.032a6.63 6.63 0 0 1-1.783 3.18H74.63V55.9h5.76v-3.351h6.683V55.9h5.758v-7.369zm-11.387 0c.599-.79 1.009-1.635 1.224-2.537.172-.702.257-1.633.257-2.793v-1.827h2.557v7.157h-4.038zm29.265-11.023h-6.726l-3.803 8.594h-.087v-8.594h-5.758v15.041h6.726l3.803-8.423h.087v8.423h5.758V37.508zm17.51 0h-5.756v5.198h-3.846v-5.198h-5.761v15.041h5.76v-5.545h3.847v5.545h5.757V37.508zm13.774 0h-7.756l-5.264 15.041h5.758l1.01-3.244h4.512l1.033 3.244h6.058l-5.351-15.041zm-5.586 8.27l1.548-4.704h.084l1.57 4.704h-3.202zm25.506.152c-.602-.515-1.353-.838-2.257-.966v-.087c.933-.172 1.673-.576 2.224-1.215.553-.636.828-1.384.828-2.244 0-.974-.344-1.805-1.03-2.493-.946-.946-2.458-1.417-4.536-1.417h-9.045v15.041h8.745c1.589 0 2.865-.195 3.826-.579 1.589-.646 2.383-1.791 2.383-3.439 0-1.076-.38-1.942-1.138-2.601zm-5.178-3.029c-.36.371-.966.559-1.827.559h-1.353v-2.9h1.48c.734 0 1.277.164 1.636.494.27.243.407.558.407.945 0 .356-.115.659-.343.902zm.043 6.037c-.36.374-.945.559-1.763.559h-1.46v-3.072h1.332c.743 0 1.31.128 1.696.387.388.258.582.637.582 1.137 0 .387-.131.718-.387.989zm24.494-11.43h-6.723l-3.806 8.594h-.084v-8.594H164.9v15.041h6.724l3.805-8.423h.084v8.423h5.758V37.508zm17.642 0h-9.002c-1.634 0-2.908.191-3.825.579-1.491.63-2.235 1.778-2.235 3.438 0 1.045.344 1.927 1.03 2.642.63.661 1.46 1.084 2.494 1.269-.646.099-1.21.33-1.696.689-.646.472-1.07 1.158-1.27 2.062l-.988 4.362h6.017l.558-3.762c.072-.456.254-.82.549-1.084.292-.264.732-.397 1.32-.397h1.29v5.243h5.758V37.508zm-6.918 6.574c-.774 0-1.358-.141-1.753-.42-.392-.279-.59-.689-.59-1.235 0-.671.3-1.13.903-1.373.315-.131.766-.195 1.353-.195h1.504v3.223h-1.417zM201.949 46.545l4.534.059.052-4.054-4.534-.058zM0 46.545l4.534.059.052-4.054-4.534-.058z"/>
        <path fill="#10A554" d="M93.697 24.364l3.844 5.83h-4.29l-1.876-3.25-.761.856v2.394h-3.659V20.61h3.659v3.158h.056l2.377-3.158h4.03z"/>
        <path fill="#10A554" d="M104.42 30.194v-6.816h-1.819c0 1.691-.093 2.972-.298 3.92-.445 2.21-1.523 3.082-3.585 3.082-.537 0-1.299-.26-1.299-.26v-2.618s.353.13.594.13c1.152 0 1.058-1.969 1.096-2.768.056-1.28.056-2.785.056-4.254h8.84v9.584h-3.585zM120.086 20.61v9.584h-3.509v-5.107h-.057l-2.785 5.107h-3.66V20.61h3.511v4.978h.055l2.787-4.978zM128.47 20.61h3.658v9.584h-3.658v-3.658h-2.693v3.658h-3.66V20.61h3.66v3.158h2.693zM144.173 20.61v9.584h-3.51v-5.107h-.056l-2.786 5.107h-3.66V20.61h3.512v4.978h.054l2.786-4.978zM152.892 24.364l3.845 5.83h-4.29l-1.876-3.25-.762.856v2.394h-3.658V20.61h3.658v3.158h.057l2.377-3.158h4.03zM161.721 26.389c-.687.147-1.002.48-1.002 1 0 .597.39.967 1.04.967.631 0 1.17-.28 1.448-.743.167-.28.223-.577.223-1.206v-.577c-.5.333-1.115.429-1.709.559zm1.932 3.806c-.112-.428-.13-.538-.149-.891-.872.873-1.783 1.206-3.064 1.206-2.174 0-3.473-1.113-3.473-3.008 0-2.6 2.488-2.842 4.458-3.12.65-.093 1.986-.038 1.986-.966 0-.576-.39-.836-1.207-.836-.89 0-1.225.223-1.355.966h-3.436c.093-2.172 1.634-3.213 4.791-3.213 1.486 0 3.808.24 4.532 1.782.204.427.26.78.26 1.747 0 1.208-.038 2.117-.038 3.603 0 .928 0 1.91.41 2.73h-3.715z"/>
    </g>
</svg>
