<svg xmlns="http://www.w3.org/2000/svg" width="29" height="17" viewBox="0 0 29 17">
    <path fill="#517297" fill-rule="evenodd" d="M28.955 1.254c.246.65-.511 2.17-2.272 4.557-.247.325-.564.76-.951 1.302-.81 1.013-1.269 1.682-1.374 2.007-.176.434-.106.85.211 1.248.176.217.581.65 1.215 1.302h.053v.054c1.444 1.338 2.413 2.478 2.906 3.418l.106.217c.035.072.07.208.106.407.035.199.035.37 0 .515-.036.145-.159.28-.37.407-.212.127-.511.19-.899.19l-3.857.108c-.246.037-.537 0-.871-.108a3.674 3.674 0 0 1-.767-.326l-.317-.217c-.317-.217-.669-.542-1.056-.976-.388-.434-.731-.832-1.03-1.194-.3-.361-.608-.66-.925-.895-.317-.235-.6-.316-.846-.244-.035 0-.079.018-.132.054-.053.037-.14.118-.264.245-.123.126-.229.28-.317.46-.088.181-.167.444-.238.787-.07.344-.105.75-.105 1.22 0 .146-.018.281-.053.408a1.82 1.82 0 0 1-.106.298l-.053.054c-.211.217-.493.326-.845.326h-1.69c-.74.072-1.49 0-2.246-.217-.758-.217-1.418-.497-1.982-.84a19.26 19.26 0 0 1-1.532-1.032 9.335 9.335 0 0 1-1.057-.895l-.37-.38c-.105-.072-.246-.217-.422-.434a65.186 65.186 0 0 1-1.084-1.41A35.182 35.182 0 0 1 3.91 9.337c-.528-.832-1.145-1.926-1.85-3.282A53.525 53.525 0 0 1 .107 1.851 1.278 1.278 0 0 1 0 1.417c0-.109.018-.2.053-.272l.053-.054C.246.874.528.766.95.766h4.174c.106 0 .212.027.317.08l.264.137.053.054c.176.108.3.271.37.488.211.506.45 1.04.713 1.6.265.561.467.986.608 1.275l.211.434c.317.615.608 1.149.872 1.6.264.453.502.805.713 1.059a3.2 3.2 0 0 0 .634.596c.212.145.388.217.529.217.14 0 .282-.018.423-.054l.052-.081c.036-.055.097-.172.185-.353.088-.18.159-.416.212-.705.052-.29.097-.705.132-1.248.035-.542.035-1.193 0-1.953a9.889 9.889 0 0 0-.159-1.112c-.07-.344-.14-.588-.211-.732l-.053-.163c-.247-.362-.687-.597-1.32-.705-.107 0-.071-.127.105-.38.176-.181.37-.326.581-.434.528-.29 1.726-.416 3.593-.38.81 0 1.497.072 2.06.217.177.036.335.1.476.19a.83.83 0 0 1 .317.38c.07.162.123.325.159.488.035.163.052.398.052.705v.841c-.035.29-.052.651-.052 1.085v1.302c0 .109-.01.326-.027.651a15 15 0 0 0-.026.76c0 .18.017.388.053.623.035.236.096.434.185.597.088.163.202.28.343.353.07.036.15.063.238.081.088.018.22-.036.396-.163.176-.126.37-.307.581-.542.212-.235.476-.588.793-1.058.317-.47.651-1.013 1.004-1.627a29.31 29.31 0 0 0 1.638-3.527c.035-.072.079-.153.132-.244a.47.47 0 0 1 .185-.19h.052l.053-.054.212-.054h.317l4.332-.054c.388-.037.714-.019.978.054.264.072.414.163.449.271l.106.163z"/>
</svg>
