<?xml version="1.0" standalone="no"?>
<!DOCTYPE svg PUBLIC "-//W3C//DTD SVG 1.1//EN" "http://www.w3.org/Graphics/SVG/1.1/DTD/svg11.dtd" >
<svg xmlns="http://www.w3.org/2000/svg">
<metadata>Generated by IcoMoon</metadata>
<defs>
<font id="icomoon" horiz-adv-x="1024">
<font-face units-per-em="1024" ascent="960" descent="-64" />
<missing-glyph horiz-adv-x="1024" />
<glyph unicode="&#x20;" horiz-adv-x="512" d="" />
<glyph unicode="&#xe900;" horiz-adv-x="850" d="M421.424 882.717c99.598 0 195.912-35.029 271.437-99.598 75.506-63.488 126.957-153.214 144.461-250.648 17.524-97.396-1.082-199.197-50.35-284.556-50.331-85.398-128.039-151.050-221.087-184.977-43.781-16.423-83.176-43.781-111.635-80.993l-21.89-28.459c-5.468-6.569-14.22-6.569-19.707 0l-21.871 28.459c-28.459 37.212-66.773 64.57-111.655 80.993-94.657 35.302-171.476 100.090-221.104 183.022l-1.084 1.955c-50.311 85.359-67.835 187.141-50.311 284.556 17.505 97.415 67.854 187.16 144.461 250.648 74.424 64.57 170.738 99.598 270.336 99.598z" />
<glyph unicode="&#xe901;" glyph-name="arrow" horiz-adv-x="1489" d="M1489.455 545.001v-162.909h-1171.363l294.726-298.729-116.364-116.364-496.454 496.547 496.454 496.454 116.364-116.364-294.726-298.636z" />
<glyph unicode="&#xe902;" glyph-name="burger" horiz-adv-x="1707" d="M0 960h1706.667v-170.667h-1706.667v170.667zM0 533.333h1706.667v-170.667h-1706.667v170.667zM0 106.667h1706.667v-170.667h-1706.667v170.667z" />
<glyph unicode="&#xe903;" glyph-name="check" horiz-adv-x="1317" d="M408.137 181.76l778.24 778.24 99.474-102.839-877.714-877.714-408.137 407.991 102.839 102.839z" />
<glyph unicode="&#xe904;" glyph-name="close" d="M512 538.496l-407.296 407.296-90.496-90.496 407.296-407.296-407.296-407.296 90.496-90.496 407.296 407.296 407.296-407.296 90.496 90.496-407.296 407.296 407.296 407.296-90.496 90.496-407.296-407.296z" />
<glyph unicode="&#xe905;" glyph-name="facebook" horiz-adv-x="512" d="M511.535 960v-204.148h-100.864c-17.594 0-30.813-8.006-39.61-24.017-8.844-16.012-13.219-33.606-13.219-52.829v-127.209h153.693v-206.569h-153.693v-408.25h-204.148v408.25h-153.693v206.569h153.693v204.055c0 56.041 20.015 104.076 60.044 144.105s88.064 60.044 144.105 60.044h153.693z" />
<glyph unicode="&#xe906;" glyph-name="insta" d="M800.461 657.152c-35.814 0.058-64.834 29.061-64.922 64.862v0.008c0.058 35.832 29.090 64.863 64.916 64.922h0.006c35.788-0.116 64.761-29.126 64.819-64.916v-0.006c-0.087-35.792-29.079-64.783-64.862-64.87h-0.008zM512 599.45c-83.608-0.087-151.362-67.841-151.45-151.441v-0.008c0.087-83.608 67.841-151.362 151.441-151.45h0.008c83.608 0.087 151.362 67.841 151.45 151.441v0.008c-0.087 83.608-67.841 151.362-151.441 151.45h-0.008zM512 195.584c-139.347 0.146-252.27 113.069-252.416 252.402v0.014c0.146 139.347 113.069 252.27 252.402 252.416h0.014c139.347-0.146 252.27-113.069 252.416-252.402v-0.014c-0.146-139.347-113.069-252.27-252.402-252.416h-0.014zM252.416 859.034c-0.49 0.006-1.068 0.009-1.647 0.009-82.738 0-149.811-67.073-149.811-149.811 0-0.579 0.003-1.158 0.010-1.735l-0.001 0.088v-519.168c0-84.941 66.509-151.45 151.45-151.45h519.168c84.941 0 151.45 66.509 151.45 151.45v519.168c0 84.941-66.509 151.45-151.45 151.45h-519.168zM252.416-64c-139.347 0.146-252.27 113.069-252.416 252.402v519.182c0.146 139.347 113.069 252.27 252.402 252.416h519.182c139.347-0.146 252.27-113.069 252.416-252.402v-519.182c-0.146-139.347-113.069-252.27-252.402-252.416h-519.182z" />
<glyph unicode="&#xe907;" glyph-name="lc" d="M512 448c-1.255-0.023-2.734-0.036-4.217-0.036-69.566 0-132.438 28.665-177.446 74.829l-0.051 0.052c-46.316 44.857-75.065 107.613-75.065 177.085 0 1.431 0.012 2.859 0.036 4.285l-0.003-0.214c0 70.842 25.041 131.258 75.031 181.155 45.059 46.215 107.93 74.881 177.497 74.881 1.483 0 2.962-0.013 4.439-0.039l-0.222 0.003c71.028 0 131.631-24.948 181.713-74.845 49.99-49.897 75.031-110.313 75.031-181.155s-25.041-131.258-75.031-181.155c-45.059-46.215-107.93-74.881-177.497-74.881-1.483 0-2.962 0.013-4.439 0.039l0.222-0.003zM512 319.255c63.023 0 132.655-9.030 208.71-26.996 76.055-17.873 145.594-47.383 208.71-88.25 63.023-40.96 94.58-87.319 94.58-139.264v-128.745h-1024v128.745c0 51.945 31.558 98.304 94.58 139.264 59.863 39.196 129.589 69.635 204.24 87.355l4.47 0.895c76.055 17.967 145.687 26.996 208.71 26.996z" />
<glyph unicode="&#xe908;" glyph-name="phone" d="M197.998 496.567c80.603-159.451 201.435-280.283 362.569-362.569l120.832 120.832c15.433 17.189 34.377 21.431 56.613 12.873 57.386-19.575 123.496-30.875 192.246-30.875 1.122 0 2.244 0.003 3.365 0.009l-0.173-0.001c13.678 0 26.112-5.12 37.303-15.36 11.118-10.313 16.677-23.186 16.677-38.619v-192.878c-0.228-14.769-6.621-28-16.712-37.269l-0.037-0.034c-9.313-10.102-22.544-16.469-37.265-16.676h-0.037c-169.691 0-326.071 41.545-469.211 124.709-141.914 82.603-256.78 197.468-337.025 335.008l-2.357 4.375c-83.31 143.287-124.782 299.666-124.782 469.431 0 13.678 5.559 26.112 16.75 37.303 9.323 10.074 22.554 16.416 37.269 16.603h192.839c15.36 0 28.306-5.559 38.546-16.75 10.313-11.118 15.433-23.552 15.433-37.303 0-68.535 10.24-133.632 30.866-195.365 6.875-22.309 2.56-41.179-12.873-56.613l-120.832-120.832z" />
<glyph unicode="&#xe909;" glyph-name="search-header" d="M682.667 561.778c0 157.094-127.35 284.444-284.444 284.444s-284.444-127.35-284.444-284.444v0c0-157.094 127.35-284.444 284.444-284.444s284.444 127.35 284.444 284.444v0zM796.444 561.778c0-219.932-178.29-398.222-398.222-398.222s-398.222 178.29-398.222 398.222v0c0 219.932 178.29 398.222 398.222 398.222s398.222-178.29 398.222-398.222v0zM1007.332 33.109l-227.556 227.556c-10.22 9.881-24.16 15.969-39.521 15.969-31.419 0-56.889-25.47-56.889-56.889 0-15.362 6.089-29.301 15.985-39.537l-0.015 0.016 227.556-227.556c10.22-9.881 24.16-15.969 39.521-15.969 31.419 0 56.889 25.47 56.889 56.889 0 15.362-6.089 29.301-15.985 39.537l0.015-0.016z" />
<glyph unicode="&#xe90a;" glyph-name="stazionar" horiz-adv-x="1317" d="M390.875 473.454c-79.579 0-144.018 63.488-144.018 141.897s64.439 141.897 144.018 141.897c79.506 0 143.945-63.488 143.945-141.897 0-37.669-15.141-73.728-42.13-100.352-27.063-26.624-63.634-41.545-101.815-41.545zM0 67.95c0-44.763 36.864-81.042 82.286-81.042s82.286 36.279 82.286 81.042v162.231h987.429v-162.231c0-44.763 36.864-81.042 82.286-81.042s82.286 36.279 82.286 81.042v587.922c0 100.791-82.871 182.491-185.125 182.491h-431.982c-45.495 0-82.359-36.279-82.359-81.115v-364.837h-452.535v486.473c0 44.837-36.864 81.115-82.286 81.115s-82.286-36.279-82.286-81.115v-810.935z" />
<glyph unicode="&#xe90b;" glyph-name="travma" d="M670.891 959.943c-16.896 0.967-35.328-9.614-44.942-25.6l-44.942-92.786c-5.234-5.234-0.398-20.423 4.779-25.6l4.836-3.243-93.070-92.729c-94.777-94.492-127.431-168.903-141.255-224.085-6.997-27.648-10.24-49.209-14.45-64-3.982-14.222-7.794-22.812-19.228-35.271-0.398-0.341 0.398-1.138 0-1.536l-35.328-33.564 33.678-33.678-168.505-167.993c-17.863 10.809-37.092 9.444-49.721-3.186l-102.741-102.343 118.784-118.329 102.684 102.4c13.653 13.596 13.653 34.19 3.243 49.607l168.505 167.993 33.678-33.564 33.735 35.157c0.398 0.398 1.195-0.398 1.593 0 12.459 11.378 21.049 15.189 35.271 19.172 14.905 4.21 36.523 7.396 64.284 14.45 55.296 13.767 129.934 46.364 224.654 140.8l93.070 92.729 3.243-4.779c10.24-5.12 20.48-9.956 25.6-4.779l93.127 44.828c25.714 15.36 30.151 51.598 9.671 71.964-20.48 20.423-65.82 41.586-168.562 143.986-102.684 102.4-124.018 147.627-144.441 168.050-7.623 9.557-17.067 15.36-27.307 15.929zM662.812 739.157l142.848-142.45-80.213-79.986-11.264-12.8c-5.803-5.803-10.411-9.159-16.043-14.393l-142.791 142.393c5.177 5.632 8.533 10.24 14.393 15.986l19.285 17.636 73.785 73.614zM491.122 551.936l126.805-126.407c-31.915-19.797-57.173-29.412-80.27-35.214-12.857-3.186-26.283-5.177-40.107-7.964l-49.778 49.607c2.844 13.767 4.836 27.193 8.021 39.993 5.803 22.983 15.474 48.185 35.271 79.986z" />
<glyph unicode="&#xe90c;" glyph-name="vk" horiz-adv-x="1664" d="M1661.44 888.064c14.080-37.376-29.376-124.544-130.432-261.504-14.080-18.688-32.32-43.52-54.528-74.688-46.528-58.112-72.768-96.512-78.848-115.2-10.112-24.896-6.080-48.768 12.16-71.552 10.048-12.48 33.28-37.376 69.696-74.752h3.008v-3.072c82.88-76.8 138.496-142.144 166.784-196.16l6.080-12.416c1.984-4.16 4.032-11.968 6.016-23.36 2.048-11.392 2.048-21.248 0-29.568-1.984-8.32-9.088-16.064-21.184-23.36-12.16-7.232-29.312-10.88-51.584-10.88l-221.312-6.208c-14.080-2.112-30.784 0-49.984 6.208-16.804 5.048-31.377 11.401-44.992 19.231l1.024-0.543-18.176 12.416c-18.24 12.48-38.4 31.168-60.672 56.064-22.208 24.896-41.92 47.744-59.136 68.48-15.698 19.279-33.116 36.169-52.315 50.848l-0.741 0.544c-18.176 13.44-34.304 18.112-48.512 13.952-1.984 0-4.48-1.024-7.552-3.072-5.565-4.395-10.522-9.006-15.083-13.986l-0.085-0.094c-7.040-7.232-13.12-16-18.176-26.432-5.056-10.368-9.6-25.408-13.632-45.12-3.886-19.661-6.11-42.267-6.11-65.391 0-1.626 0.011-3.25 0.033-4.871l-0.003 0.246c0-8.32-1.024-16.064-3.008-23.36-1.742-6.618-3.819-12.301-6.349-17.731l0.269 0.643-3.008-3.2c-12.16-12.416-28.352-18.56-48.512-18.56h-97.024c-9.622-0.959-20.797-1.505-32.099-1.505-34.478 0-67.769 5.087-99.162 14.55l2.429-0.629c-43.231 12.014-81.014 28.49-115.815 49.42l2.087-1.164c-34.425 20.901-63.111 40.409-90.789 61.186l2.853-2.050c-22.435 16.4-42.213 33.235-60.681 51.4l0.073-0.072-21.248 21.76c-6.016 4.16-14.080 12.48-24.256 24.96-14.806 18.368-35.162 44.698-55.172 71.304l-6.908 9.592c-28.493 37.347-58.998 81.015-87.775 125.896l-4.833 8.056c-30.208 47.68-65.536 110.4-106.048 188.16-32.751 60.625-70.353 139.971-104.57 221.095l-7.558 20.185c-3.309 7.314-5.488 15.81-6.069 24.743l-0.011 0.217c0 6.208 1.024 11.392 3.008 15.552l3.072 3.136c8 12.416 24.256 18.688 48.512 18.688h239.488c6.080 0 12.16-1.6 18.176-4.672l15.168-7.808 3.008-3.136c10.138-6.403 17.681-16.127 21.157-27.618l0.091-0.35c12.16-29.056 25.792-59.712 40.96-91.84 15.104-32.192 26.752-56.576 34.816-73.152l12.16-24.96c18.176-35.2 34.88-65.856 49.984-91.776 15.168-25.92 28.8-46.208 40.96-60.736 12.16-14.464 24.256-25.92 36.352-34.24 12.16-8.32 22.272-12.416 30.336-12.416s16.192 1.024 24.256 3.136l3.008 4.672c3.243 5.352 6.786 11.981 10.013 18.79l0.611 1.434c5.12 10.368 9.088 23.872 12.16 40.448 3.008 16.64 5.568 40.448 7.552 71.616 0.971 16.731 1.525 36.301 1.525 56s-0.553 39.269-1.646 58.694l0.121-2.694c-2.088 24.331-5.303 46.157-9.722 67.544l0.634-3.672c-4.032 19.712-8.064 33.728-12.16 41.984l-3.008 9.344c-14.080 20.8-39.424 34.24-75.776 40.512-6.080 0-4.032 7.232 6.080 21.76 10.112 10.368 21.184 18.688 33.28 24.96 30.336 16.576 99.072 23.808 206.208 21.76 46.464 0 85.888-4.16 118.208-12.48 10.112-2.048 19.2-5.76 27.328-10.88 8.069-5.262 14.338-12.683 18.058-21.448l0.118-0.312c4.032-9.408 7.040-18.688 9.088-28.032s3.008-22.848 3.008-40.512v-48.256c-1.984-16.576-3.008-37.312-3.008-62.208v-74.752c0-6.208-0.512-18.688-1.536-37.312-0.96-18.688-1.472-33.28-1.472-43.584 0-10.368 0.96-22.336 3.008-35.84 2.048-13.44 5.568-24.896 10.624-34.24 6.633-12.861 18.684-22.131 33.052-24.85l0.292-0.046c5.056-1.024 12.608 2.112 22.72 9.344 10.112 7.296 21.248 17.664 33.344 31.168 12.16 13.44 27.328 33.664 45.44 60.672 18.24 27.008 37.44 58.112 57.6 93.44 31.295 55.458 62.906 122.043 90.11 190.85l3.97 11.39c1.984 4.16 4.48 8.832 7.552 14.080 2.476 4.6 6.098 8.304 10.491 10.81l0.133 0.070h3.008l3.008 3.072 12.16 3.136h18.176l248.64 3.136c22.208 2.048 40.896 1.024 56.064-3.136s23.744-9.344 25.792-15.552l6.016-9.344z" />
<glyph unicode="&#xe90d;" glyph-name="youtube" horiz-adv-x="1240" d="M495.293 160.579l370.634 287.421-370.688 287.421v-574.841zM1115.082 933.053c46.349-19.941 78.686-75.83 97.011-167.667s27.486-197.147 27.486-315.877c0-118.784-9.162-224.579-27.486-317.44-18.324-92.753-50.661-149.181-97.011-169.122-23.175-7.976-82.082-14.498-176.721-19.456-94.585-5.012-200.812-7.491-318.572-7.491s-223.987 2.479-318.572 7.491c-94.639 4.958-153.492 11.48-176.667 19.456-46.349 19.941-78.686 76.369-97.011 169.176-18.378 92.753-27.54 198.602-27.54 317.386 0 118.73 9.162 224.040 27.486 315.823 18.324 91.891 50.661 148.749 97.011 170.739 23.175 5.928 82.136 11.48 176.775 16.384 94.531 5.066 200.758 7.545 318.518 7.545s223.987-3.018 318.572-9c94.639-5.928 153.492-11.965 176.667-17.947z" />
<glyph unicode="&#xe90e;" horiz-adv-x="850" d="M850.113 766.792c0-106.706-86.502-193.208-193.208-193.208s-193.208 86.502-193.208 193.208c0 106.706 86.502 193.208 193.208 193.208s193.208-86.502 193.208-193.208z" />
<glyph unicode="&#xe90f;" horiz-adv-x="850" d="M666.721 794.189v69.207h-37.212v-69.207h-69.207v-37.212h69.207v-69.207h37.212v69.207h69.207v37.212z" />
<glyph unicode="&#xe910;" glyph-name="pin" horiz-adv-x="920" d="M455.826 960c107.729 0 211.905-37.888 293.595-107.729 81.669-68.671 137.32-165.721 156.254-271.109 18.954-105.347-1.17-215.458-54.46-307.785-54.439-92.369-138.491-163.38-239.135-200.077-47.355-17.763-89.966-47.355-120.748-87.604l-23.677-30.783c-5.914-7.105-15.381-7.105-21.316 0l-23.656 30.783c-30.783 40.249-72.223 69.841-120.769 87.604-102.384 38.184-185.474 108.261-239.154 197.963l-1.173 2.114c-54.418 92.327-73.373 202.418-54.418 307.785 18.934 105.368 73.394 202.439 156.254 271.109 80.499 69.841 184.675 107.729 292.404 107.729z" />
<glyph unicode="&#xe911;" glyph-name="apteka" d="M512-64c-282.77 0-512 229.23-512 512s229.23 512 512 512v0c282.77 0 512-229.23 512-512s-229.23-512-512-512v0zM512 49.778c219.932 0 398.222 178.29 398.222 398.222s-178.29 398.222-398.222 398.222v0c-219.932 0-398.222-178.29-398.222-398.222s178.29-398.222 398.222-398.222v0zM560.242 496.242v179.314h-96.484v-179.314h-179.314v-96.484h179.314v-179.314h96.484v179.314h179.314v96.484z" />
<glyph unicode="&#xe912;" glyph-name="doc" horiz-adv-x="791" d="M99.468 960h395.636l296.169-296.169v-592.291c-1.536-27.741-11.59-50.874-30.068-69.353-18.525-18.572-41.658-27.788-69.399-27.788h-592.337c-27.741 0-50.874 9.216-69.353 27.741-18.525 18.525-28.579 41.658-30.115 69.399v791.273c1.536 27.834 11.59 50.921 30.068 69.446 18.525 18.432 41.658 27.741 69.399 27.741zM444.23 885.993v-270.708h272.989l-272.989 270.662zM148.015 418.537l74.007-347.043h99.607l74.007 148.154 74.007-148.108h99.514l74.007 347.043h48.64v97.187h-196.701v-97.187h48.593l-43.939-208.198-55.529 108.73h-97.187l-55.529-108.73-43.939 208.198h48.593v97.187h-196.701v-97.187h48.593z" />
<glyph unicode="&#xe913;" glyph-name="img" horiz-adv-x="791" d="M444.23 615.284h272.989l-272.989 270.662v-270.662zM99.468 960h395.636l296.169-296.169v-592.291c-1.536-27.741-11.59-50.874-30.068-69.353-18.525-18.572-41.658-27.788-69.399-27.788h-592.337c-27.741 0-50.874 9.216-69.353 27.741-18.525 18.525-28.579 41.658-30.115 69.399v791.273c1.536 27.834 11.59 50.921 30.068 69.446 18.525 18.432 41.658 27.741 69.399 27.741zM99.468 71.54h592.337v395.636l-196.701-196.655-99.468 97.187-296.169-296.169zM198.982 615.284c-27.788 0-51.293-9.681-70.563-28.951s-28.951-42.822-28.951-70.563 9.681-50.874 28.951-69.399c19.27-18.525 42.822-27.788 70.563-27.788s50.874 9.309 69.399 27.788c18.525 18.525 27.788 41.658 27.788 69.399 0 27.788-9.309 51.293-27.788 70.563-18.525 19.27-41.658 28.951-69.399 28.951z" />
<glyph unicode="&#xe914;" glyph-name="pdf" horiz-adv-x="791" d="M445.533 614.26h271.5l-271.5 271.5v-271.5zM97.466 960h396.8l297.007-297.007v-594.060c0-27.834-9.681-51.014-28.998-69.585-19.363-18.618-42.915-27.881-70.749-27.881h-594.106c-27.834 0-51.060 9.309-69.632 27.881-18.479 18.572-27.788 41.751-27.788 69.585v793.6c0 27.834 9.309 51.060 27.834 69.632 18.618 18.525 41.798 27.834 69.632 27.834zM343.412 444.881c20.108-46.452 44.87-82.013 74.287-106.775l20.852-16.244c-44.87-7.727-99.747-23.18-164.771-46.406l-6.935-2.327 25.553 51.060c21.644 43.287 38.633 83.549 51.014 120.692zM663.645 254.604c7.727 9.263 12.381 19.689 13.964 31.325 1.489 11.59-0.791 21.271-6.982 28.998-13.964 23.18-51.060 34.816-111.383 34.816l-64.977-4.655-44.079 30.161c-30.953 26.298-57.251 68.049-78.895 125.3l2.327 6.982c9.263 33.978 15.453 68.049 18.525 102.074 3.119 34.025-3.072 59.578-18.572 76.567-7.995 7.116-18.553 11.505-30.134 11.636h-11.57c-9.309 0-17.78-3.91-25.507-11.636-7.046-6.622-12.026-15.369-13.917-25.214l-0.047-0.293c-9.263-32.489-12.335-60.323-9.263-83.549 3.119-23.18 9.309-49.478 18.572-78.895-10.845-44.87-28.625-93.556-53.388-146.153l-46.406-88.204-44.079-23.226c-29.37-20.108-51.805-39.424-67.305-57.996-15.453-18.572-23.971-34.816-25.507-48.733-1.536-9.309-0.791-17.78 2.327-25.507l2.327-2.327 23.18-16.244 20.899-4.655c20.108 0 42.124 12.009 66.095 35.98 24.017 23.971 51.479 62.278 82.385 114.874l6.982 4.655c49.524 15.453 116.038 27.834 199.54 37.097 22.848-11.139 49.544-20.697 77.384-27.299l2.674-0.535c27.089-6.191 50.688-9.309 70.749-9.309 20.154 0 34.863 4.655 44.125 13.964zM642.746 289.373l4.655-4.655c0-4.608-1.536-6.935-4.655-6.935h-11.59c-24.762 0-55.668 8.518-92.812 25.507 3.072 3.119 6.191 4.655 9.309 4.655 33.978 0 57.996-2.327 71.913-6.982s21.644-8.471 23.18-11.59zM187.997 217.46c-32.535-58.787-60.369-91.276-83.596-97.466 1.583 9.309 7.773 21.271 18.618 35.98 13.28 17.515 26.962 33.042 41.689 47.508l0.063 0.061 23.18 13.917zM338.804 560.873c-10.845 44.87-12.381 78.15-4.655 99.793l4.655 6.982 6.982-2.327c7.68-10.845 9.263-28.625 4.608-53.388l-9.309-48.733-2.327-2.327z" />
<glyph unicode="&#xe915;" glyph-name="ppt" horiz-adv-x="791" d="M99.468 960h395.636l296.169-296.169v-592.291c-1.536-27.741-11.59-50.874-30.068-69.353-18.525-18.572-41.658-27.788-69.399-27.788h-592.337c-27.741 0-50.874 9.216-69.353 27.741-18.525 18.525-28.579 41.658-30.115 69.399v791.273c1.536 27.834 11.59 50.921 30.068 69.446 18.525 18.432 41.658 27.741 69.399 27.741zM444.23 885.993v-270.708h272.989l-272.989 270.662zM198.935 515.77v-97.187h48.687v-296.122h-48.64v-50.921h196.655v50.921h-48.593v97.187h97.187c43.194 1.536 78.662 16.198 106.403 43.939 27.788 27.788 41.658 62.836 41.658 105.286 0 42.403-13.871 77.498-41.658 105.239-27.741 27.788-63.209 41.658-106.403 41.658h-245.295zM444.23 418.583c13.871-1.536 25.46-6.935 34.676-16.198 9.309-9.216 13.917-20.806 13.917-34.676s-4.655-25.46-13.917-34.723c-8.533-8.579-20.346-13.888-33.399-13.888-0.449 0-0.897 0.006-1.343 0.019l0.066-0.001h-97.187v99.468h97.187z" />
<glyph unicode="&#xe916;" glyph-name="unknown" horiz-adv-x="791" d="M444.23 615.284h272.989l-272.989 270.662v-270.662zM99.468 960h395.636l296.169-296.169v-592.291c-1.536-27.741-11.59-50.874-30.068-69.353-18.525-18.572-41.658-27.788-69.399-27.788h-592.337c-27.741 0-50.874 9.216-69.353 27.741-18.525 18.525-28.579 41.658-30.115 69.399v791.273c1.536 27.834 11.59 50.921 30.068 69.446 18.525 18.432 41.658 27.741 69.399 27.741z" />
<glyph unicode="&#xe917;" glyph-name="xls" horiz-adv-x="791" d="M99.468 960h395.636l296.169-296.169v-592.291c-1.536-27.741-11.59-50.874-30.068-69.353-18.525-18.572-41.658-27.788-69.399-27.788h-592.337c-27.741 0-50.874 9.216-69.353 27.741-18.525 18.525-28.579 41.658-30.115 69.399v791.273c1.536 27.834 11.59 50.921 30.068 69.446 18.525 18.432 41.658 27.741 69.399 27.741zM444.23 885.993v-270.708h272.989l-272.989 270.662zM643.212 515.77h-198.982v-97.187h50.874l-99.468-83.316-99.468 83.316h50.874v97.187h-198.982v-97.187h50.921l148.061-124.928-148.061-122.601h-50.967v-99.514h198.982v99.514h-50.828l99.468 83.316 99.468-83.316h-50.874v-99.514h198.982v99.514h-50.921l-148.061 122.601 148.061 124.928h50.921v97.187z" />
<glyph unicode="&#xe918;" glyph-name="chevron" horiz-adv-x="1536" d="M1355.947 960l180.053-180.053-768-768-768 768 180.053 180.053 587.947-587.947z" />
<glyph unicode="&#xe919;" glyph-name="map" horiz-adv-x="709" d="M101.927 854.213c69.553 70.498 153.364 105.787 251.353 105.787s181.799-34.816 251.274-104.527c69.711-69.711 104.369-154.309 104.369-253.637 0-49.625-12.288-106.969-36.785-171.874-26.147-69.29-56.045-128.71-91.283-184.418l2.431 4.115c-40.972-65.29-75.376-116.183-111.134-166.041l6.765 9.92c-32.125-45.725-60.908-83.691-90.872-120.658l3.202 4.080-37.967-40.96c-12.723 13.317-25.139 27.429-36.962 42.040l-1.005 1.283c-15.754 19.141-43.874 56.399-84.126 111.695-33.216 44.657-68.809 97.192-102.229 151.214l-5.685 9.87c-30.588 50.13-59.276 108.33-82.743 169.126l-2.564 7.553c-25.364 65.694-37.967 123.353-37.967 173.056 0 99.328 33.95 183.532 101.927 252.377zM263.168 510.464c25.285-24.025 55.296-35.998 90.112-35.998 34.737 0 64.827 12.367 90.112 37.258 25.206 24.812 37.888 54.823 37.888 90.112s-12.603 65.378-37.888 90.112c-22.563 23.006-53.971 37.266-88.71 37.266-0.493 0-0.985-0.003-1.477-0.009l0.075 0.001c-34.816 0-64.433-12.367-88.93-37.258-22.68-22.428-36.725-53.548-36.725-87.947 0-0.761 0.007-1.521 0.021-2.278l-0.002 0.114c0-35.289 11.815-65.694 35.525-91.372z" />
</font>
</defs>
</svg>
