<?xml version="1.0" encoding="UTF-8"?>
<svg width="18px" height="18px" viewBox="0 0 18 18" version="1.1" xmlns="http://www.w3.org/2000/svg" xmlns:xlink="http://www.w3.org/1999/xlink">
    <!-- Generator: Sketch 47.1 (45422) - http://www.bohemiancoding.com/sketch -->
    <title>filter</title>
    <desc>Created with Sketch.</desc>
    <defs></defs>
    <g id="Page-1" stroke="none" stroke-width="1" fill="none" fill-rule="evenodd">
        <g id="м_Направления" transform="translate(-281.000000, -184.000000)" fill-rule="nonzero" fill="#313131">
            <g id="Group-3" transform="translate(0.000000, 168.000000)">
                <path d="M281.186446,17.5814892 C280.713396,16.9196518 281.186486,16 282,16 L298,16 C298.813514,16 299.286604,16.9196518 298.813554,17.5814892 L293.285714,25.31542 L293.285714,32.9895698 C293.285714,33.7328378 292.50362,34.2163397 291.838734,33.8841135 L287.267305,31.5998893 C286.928393,31.4305436 286.714286,31.0842115 286.714286,30.7053455 L286.714286,25.31542 L281.186446,17.5814892 Z M288.52784,24.4132957 C288.649097,24.5829448 288.714286,24.7862566 288.714286,24.9947849 L288.714286,30.0871313 L291.285714,31.3720074 L291.285714,24.9947849 C291.285714,24.7862566 291.350903,24.5829448 291.47216,24.4132957 L296.056074,18 L283.943926,18 L288.52784,24.4132957 Z" id="filter"></path>
            </g>
        </g>
    </g>
</svg>