<svg xmlns="http://www.w3.org/2000/svg" width="17" height="22" viewBox="0 0 17 22">
    <path fill="#313131" fill-rule="evenodd" d="M9.544 7.406h5.865L9.544 1.591v5.815zM2.137 0h8.5L17 6.363v12.725c-.033.596-.249 1.093-.646 1.49-.398.399-.895.597-1.491.597H2.137c-.596 0-1.093-.198-1.49-.596-.398-.398-.614-.895-.647-1.491v-17C.033 1.49.249.994.646.596 1.044.2 1.541 0 2.137 0zm0 19.088h12.726v-8.5l-4.226 4.225L8.5 12.725l-6.363 6.363zM4.275 7.406c-.597 0-1.102.208-1.516.622-.414.414-.622.92-.622 1.516s.208 1.093.622 1.491c.414.398.92.597 1.516.597s1.093-.2 1.491-.597c.398-.398.597-.895.597-1.491 0-.597-.2-1.102-.597-1.516-.398-.414-.895-.622-1.491-.622z"/>
</svg>
