<svg xmlns="http://www.w3.org/2000/svg" width="20" height="20" viewBox="0 0 20 20">
    <path fill="#A7A7A7" fill-rule="evenodd" d="M15.634 5.915a1.27 1.27 0 0 1-1.268-1.267 1.27 1.27 0 0 1 1.268-1.268A1.27 1.27 0 0 1 16.9 4.648a1.27 1.27 0 0 1-1.267 1.267zM10 7.042A2.961 2.961 0 0 0 7.042 10 2.961 2.961 0 0 0 10 12.958 2.961 2.961 0 0 0 12.958 10 2.961 2.961 0 0 0 10 7.042zm0 7.888A4.935 4.935 0 0 1 5.07 10 4.935 4.935 0 0 1 10 5.07 4.935 4.935 0 0 1 14.93 10 4.935 4.935 0 0 1 10 14.93zM4.93 1.972A2.926 2.926 0 0 0 1.972 4.93v10.14c0 1.659 1.299 2.958 2.958 2.958h10.14c1.659 0 2.958-1.299 2.958-2.958V4.93c0-1.659-1.299-2.958-2.958-2.958H4.93zM4.93 20A4.935 4.935 0 0 1 0 15.07V4.93A4.935 4.935 0 0 1 4.93 0h10.14A4.935 4.935 0 0 1 20 4.93v10.14A4.935 4.935 0 0 1 15.07 20H4.93z"/>
</svg>
