<svg xmlns="http://www.w3.org/2000/svg" width="11" height="11" viewBox="0 0 11 11">
    <path fill="#A7A7A7" fill-rule="evenodd" d="M5.5 5.5a2.662 2.662 0 0 1-1.952-.804 2.647 2.647 0 0 1-.806-1.946c0-.761.269-1.41.806-1.946A2.662 2.662 0 0 1 5.5 0c.763 0 1.414.268 1.952.804.537.536.806 1.185.806 1.946 0 .761-.269 1.41-.806 1.946A2.662 2.662 0 0 1 5.5 5.5zm0 1.383c.677 0 1.425.097 2.242.29.817.192 1.564.509 2.242.948.677.44 1.016.938 1.016 1.496V11H0V9.617c0-.558.339-1.056 1.016-1.496a7.068 7.068 0 0 1 2.242-.948c.817-.193 1.565-.29 2.242-.29z"/>
</svg>
