<svg xmlns="http://www.w3.org/2000/svg" width="9" height="13" viewBox="0 0 9 13">
    <path fill="#313131" fill-rule="evenodd" d="M1.294 1.343C2.177.448 3.241 0 4.485 0c1.244 0 2.308.442 3.19 1.327C8.56 2.212 9 3.286 9 4.547c0 .63-.156 1.358-.467 2.182a12.726 12.726 0 0 1-1.128 2.289A41.953 41.953 0 0 1 6.08 11a27.75 27.75 0 0 1-1.113 1.48L4.485 13a8.65 8.65 0 0 1-.482-.55c-.2-.243-.557-.716-1.068-1.418a29.222 29.222 0 0 1-1.37-2.045A14.032 14.032 0 0 1 .482 6.744C.16 5.91 0 5.178 0 4.547c0-1.261.431-2.33 1.294-3.204zm2.047 4.364c.321.305.702.457 1.144.457.441 0 .823-.157 1.144-.473.32-.315.481-.696.481-1.144 0-.448-.16-.83-.481-1.144a1.577 1.577 0 0 0-1.144-.473c-.442 0-.818.157-1.129.473a1.57 1.57 0 0 0-.466 1.144c0 .448.15.834.451 1.16z"/>
</svg>
