<svg xmlns="http://www.w3.org/2000/svg" width="17" height="22" viewBox="0 0 17 22">
    <path fill="#313131" fill-rule="evenodd" d="M9.572 7.428h5.833L9.572 1.595v5.833zM2.094 0h8.525L17 6.381v12.763c0 .598-.208 1.096-.623 1.495-.416.4-.922.599-1.52.599H2.093c-.598 0-1.097-.2-1.496-.599C.2 20.24 0 19.742 0 19.144V2.094C0 1.496.2.997.598.598.998.2 1.496 0 2.094 0zm5.284 11.067c.432.998.964 1.762 1.596 2.294l.448.349c-.964.166-2.143.498-3.54.997l-.149.05.549-1.097c.465-.93.83-1.795 1.096-2.593zm6.88 4.088c.166-.199.266-.423.3-.673.032-.249-.017-.457-.15-.623-.3-.498-1.097-.748-2.393-.748l-1.396.1-.947-.648c-.665-.565-1.23-1.462-1.695-2.692l.05-.15c.199-.73.332-1.462.398-2.193.067-.731-.066-1.28-.399-1.645a.993.993 0 0 0-.648-.25H7.13c-.2 0-.382.084-.548.25a1.004 1.004 0 0 0-.3.548c-.199.698-.265 1.296-.199 1.795.067.498.2 1.063.399 1.695-.233.964-.615 2.01-1.147 3.14l-.997 1.895-.947.499c-.631.432-1.113.847-1.446 1.246-.332.399-.515.748-.548 1.047-.033.2-.017.382.05.548l.05.05.498.349.449.1c.432 0 .905-.258 1.42-.773.516-.515 1.106-1.338 1.77-2.468l.15-.1c1.064-.332 2.493-.598 4.287-.797a8.46 8.46 0 0 0 1.72.598c.582.133 1.089.2 1.52.2.433 0 .749-.1.948-.3zm-.449-.747l.1.1c0 .099-.033.149-.1.149h-.249c-.532 0-1.196-.183-1.994-.548.066-.067.133-.1.2-.1.73 0 1.246.05 1.545.15.299.1.465.182.498.249zm-9.77 1.545c-.699 1.263-1.297 1.961-1.796 2.094.034-.2.167-.457.4-.773a9.17 9.17 0 0 1 .897-1.022l.498-.299zm3.24-7.378c-.233-.964-.266-1.679-.1-2.144l.1-.15.15.05c.165.233.199.615.099 1.147l-.2 1.047-.05.05z"/>
</svg>
