<svg xmlns="http://www.w3.org/2000/svg" width="14" height="14" viewBox="0 0 14 14">
    <path fill="#10A554" fill-rule="evenodd" d="M2.707 6.336c1.102 2.18 2.754 3.832 4.957 4.957l1.652-1.652c.211-.235.47-.293.774-.176a8.394 8.394 0 0 0 2.672.422c.187 0 .357.07.51.21.152.141.228.317.228.528v2.637a.706.706 0 0 1-.229.51.706.706 0 0 1-.51.228c-2.32 0-4.458-.568-6.415-1.705a12.593 12.593 0 0 1-4.64-4.64C.567 5.696 0 3.558 0 1.237c0-.187.076-.357.229-.51A.706.706 0 0 1 .739.5h2.636c.21 0 .387.076.527.229.141.152.211.322.211.51 0 .937.14 1.827.422 2.671.094.305.035.563-.176.774L2.707 6.336z"/>
</svg>
