<svg xmlns="http://www.w3.org/2000/svg" width="44" height="53" viewBox="0 0 44 53">
    <g fill="none" fill-rule="evenodd">
        <path fill="#F4A13C" d="M21.812 4c5.155 0 10.14 1.813 14.049 5.155 3.908 3.286 6.571 7.93 7.477 12.973.907 5.041-.056 10.31-2.606 14.728-2.605 4.42-6.627 7.818-11.443 9.574-2.266.85-4.305 2.266-5.778 4.192l-1.133 1.473c-.283.34-.736.34-1.02 0l-1.132-1.473c-1.473-1.926-3.456-3.342-5.779-4.192a22.22 22.22 0 0 1-11.5-9.574C.343 32.438-.564 27.17.343 22.128c.906-5.042 3.512-9.687 7.477-12.973C11.672 5.813 16.657 4 21.812 4z"/>
        <g transform="translate(24)">
            <circle cx="10" cy="10" r="10" fill="#FFF"/>
            <path fill="#10A554" d="M10.508 8.582V5H8.582v3.582H5v1.926h3.582v3.582h1.926v-3.582h3.582V8.582z"/>
        </g>
    </g>
</svg>
