<svg xmlns="http://www.w3.org/2000/svg" width="17" height="22" viewBox="0 0 17 22">
    <path fill="#313131" fill-rule="evenodd" d="M2.137 0h8.5L17 6.363v12.725c-.033.596-.249 1.093-.646 1.49-.398.399-.895.597-1.491.597H2.137c-.596 0-1.093-.198-1.49-.596-.398-.398-.614-.895-.647-1.491v-17C.033 1.49.249.994.646.596 1.044.2 1.541 0 2.137 0zm7.407 1.59v5.816h5.865L9.544 1.591zm-5.27 7.954v2.088H5.32v6.362H4.275v1.094H8.5v-1.094H7.456v-2.088h2.088c.928-.033 1.69-.348 2.286-.944.597-.597.895-1.35.895-2.262 0-.911-.298-1.665-.895-2.261-.596-.597-1.358-.895-2.286-.895h-5.27zm5.27 2.088c.298.033.547.149.745.348.2.198.299.447.299.745s-.1.547-.299.746a1.012 1.012 0 0 1-.745.298H7.456v-2.137h2.088z"/>
</svg>
