<svg xmlns="http://www.w3.org/2000/svg" width="25" height="25" viewBox="0 0 25 25">
    <g fill="#10A554" fill-rule="nonzero">
        <path d="M18.857 10.422C18.857 5.771 15.083 2 10.43 2 5.774 2 2 5.77 2 10.422c0 4.652 3.774 8.423 8.429 8.423 4.654 0 8.428-3.771 8.428-8.423zm2 0c0 5.757-4.67 10.423-10.428 10.423C4.669 20.845 0 16.179 0 10.422 0 4.666 4.67 0 10.429 0s10.428 4.666 10.428 10.422z"/>
        <path d="M24.707 23.288l-6.857-6.852a1 1 0 0 0-1.414 1.414l6.857 6.853a1 1 0 0 0 1.414-1.415z"/>
    </g>
</svg>
