<svg xmlns="http://www.w3.org/2000/svg" width="18" height="14" viewBox="0 0 18 14">
    <path fill="#A7A7A7" fill-rule="nonzero" d="M5.344 6.652c-1.088 0-1.969-.868-1.969-1.94s.881-1.94 1.969-1.94c1.087 0 1.968.868 1.968 1.94 0 .515-.207 1.008-.576 1.372-.37.364-.87.568-1.392.568zM0 12.196c0 .612.504 1.108 1.125 1.108s1.125-.496 1.125-1.108V9.978h13.5v2.218c0 .612.504 1.108 1.125 1.108S18 12.808 18 12.196V4.158c0-1.378-1.133-2.495-2.531-2.495H9.563c-.622 0-1.126.496-1.126 1.109V7.76H2.25V1.109C2.25.496 1.746 0 1.125 0S0 .496 0 1.109v11.087z"/>
</svg>
