<svg xmlns="http://www.w3.org/2000/svg" width="18" height="18" viewBox="0 0 18 18">
    <path fill="#A7A7A7" fill-rule="nonzero" d="M11.793.001c-.297-.017-.621.169-.79.45l-.79 1.631c-.092.092-.007.359.084.45l.085.057-1.636 1.63C7.08 5.88 6.506 7.188 6.263 8.158c-.123.486-.18.865-.254 1.125-.07.25-.137.401-.338.62-.007.006.007.02 0 .027l-.621.59.592.592-2.962 2.953c-.314-.19-.652-.166-.874.056L0 15.92 2.088 18l1.805-1.8c.24-.239.24-.601.057-.872l2.962-2.953.592.59.593-.618c.007-.007.021.007.028 0 .219-.2.37-.267.62-.337.262-.074.642-.13 1.13-.254.972-.242 2.284-.815 3.949-2.475l1.636-1.63.057.084c.18.09.36.175.45.084l1.637-.788c.452-.27.53-.907.17-1.265-.36-.359-1.157-.731-2.963-2.531-1.805-1.8-2.18-2.595-2.539-2.954-.134-.168-.3-.27-.48-.28zm-.142 3.881l2.511 2.504-1.41 1.406-.198.225c-.102.102-.183.161-.282.253l-2.51-2.503c.091-.099.15-.18.253-.281l.339-.31 1.297-1.294zM8.633 7.173l2.229 2.222c-.561.348-1.005.517-1.411.619-.226.056-.462.091-.705.14l-.875-.872c.05-.242.085-.478.141-.703.102-.404.272-.847.62-1.406z"/>
</svg>
