<svg xmlns="http://www.w3.org/2000/svg" width="26" height="16" viewBox="0 0 26 16">
    <path fill="#A7A7A7" fill-rule="evenodd" d="M25.96 1.124c.22.584-.459 1.946-2.038 4.086-.22.292-.505.68-.852 1.167-.727.908-1.137 1.508-1.232 1.8-.158.389-.095.762.19 1.118.157.195.52.584 1.089 1.168h.047v.048c1.295 1.2 2.164 2.221 2.606 3.065l.095.194c.031.065.063.187.094.365.032.178.032.332 0 .462-.031.13-.142.251-.331.365-.19.113-.458.17-.806.17l-3.458.097c-.22.033-.481 0-.781-.097a3.294 3.294 0 0 1-.687-.292l-.284-.194c-.285-.195-.6-.487-.948-.876-.347-.389-.655-.746-.924-1.07a4.804 4.804 0 0 0-.829-.803c-.284-.21-.536-.283-.758-.218-.031 0-.07.016-.118.048a1.967 1.967 0 0 0-.237.22c-.11.113-.205.25-.284.413-.079.162-.15.397-.213.705a5.515 5.515 0 0 0-.095 1.094c0 .13-.016.251-.047.365a1.632 1.632 0 0 1-.095.267l-.047.05c-.19.194-.443.29-.758.29h-1.516a5.36 5.36 0 0 1-2.013-.194 7.221 7.221 0 0 1-1.777-.754 17.267 17.267 0 0 1-1.374-.924 8.37 8.37 0 0 1-.947-.802l-.332-.34c-.094-.065-.22-.195-.379-.39a58.443 58.443 0 0 1-.97-1.264A31.543 31.543 0 0 1 3.504 8.37C3.032 7.625 2.48 6.645 1.847 5.43a47.988 47.988 0 0 1-1.752-3.77A1.146 1.146 0 0 1 0 1.27c0-.097.016-.178.047-.243L.095.978C.22.784.474.686.853.686h3.742c.095 0 .19.025.284.073l.237.122.047.049a.773.773 0 0 1 .332.437c.19.454.403.933.64 1.435.236.503.418.884.544 1.143l.19.39c.284.55.545 1.029.781 1.434.237.405.45.722.64.949.19.226.379.405.568.535.19.13.348.194.474.194s.253-.016.379-.049l.047-.073a3.69 3.69 0 0 0 .166-.316c.08-.162.142-.373.19-.632.047-.26.087-.632.118-1.119a16.08 16.08 0 0 0 0-1.75 8.866 8.866 0 0 0-.142-.998c-.063-.308-.126-.527-.19-.656l-.047-.146c-.22-.325-.616-.535-1.184-.633-.095 0-.063-.113.095-.34.158-.162.331-.292.52-.39.474-.259 1.548-.372 3.222-.34.726 0 1.342.065 1.847.195.158.032.3.09.427.17a.745.745 0 0 1 .284.34c.063.147.11.292.142.438.032.146.047.357.047.633v.754c-.031.259-.047.583-.047.972v1.168c0 .097-.008.292-.024.583-.015.292-.023.52-.023.681 0 .162.015.349.047.56.032.21.087.389.166.535a.733.733 0 0 0 .521.389c.079.016.197-.033.355-.146.158-.114.332-.276.521-.487.19-.21.427-.526.71-.948.285-.422.585-.908.9-1.46a26.279 26.279 0 0 0 1.47-3.16c.031-.065.07-.138.118-.22a.422.422 0 0 1 .166-.17h.047l.047-.048.19-.049h.284l3.885-.049c.347-.032.639-.016.876.049s.371.146.403.243l.094.146z"/>
</svg>
