<svg xmlns="http://www.w3.org/2000/svg" width="17" height="22" viewBox="0 0 17 22">
    <path fill="#313131" fill-rule="evenodd" d="M2.137 0h8.5L17 6.363v12.725c-.033.596-.249 1.093-.646 1.49-.398.399-.895.597-1.491.597H2.137c-.596 0-1.093-.198-1.49-.596-.398-.398-.614-.895-.647-1.491v-17C.033 1.49.249.994.646.596 1.044.2 1.541 0 2.137 0zm7.407 1.59v5.816h5.865L9.544 1.591zm4.275 7.954H9.544v2.088h1.093L8.5 13.422l-2.137-1.79h1.093V9.544H3.181v2.088h1.094l3.181 2.684-3.181 2.634H3.18v2.138h4.275V16.95H6.363L8.5 15.16l2.137 1.79H9.544v2.138h4.275V16.95h-1.094l-3.181-2.634 3.181-2.684h1.094V9.544z"/>
</svg>
