<svg xmlns="http://www.w3.org/2000/svg" width="23" height="19" viewBox="0 0 23 19">
    <path fill="#A7A7A7" fill-rule="evenodd" d="M9.19 14.833L16.067 9.5 9.189 4.167v10.666zM20.69.5c.86.37 1.46 1.407 1.8 3.111.34 1.704.51 3.658.51 5.861 0 2.204-.17 4.167-.51 5.89-.34 1.721-.94 2.768-1.8 3.138-.43.148-1.523.269-3.279.361-1.755.093-3.726.139-5.911.139-2.185 0-4.156-.046-5.911-.139-1.756-.092-2.848-.213-3.278-.361-.86-.37-1.46-1.417-1.8-3.139C.17 13.64 0 11.676 0 9.472c0-2.203.17-4.157.51-5.86.34-1.705.94-2.76 1.8-3.168C2.74.334 3.834.231 5.59.14 7.344.046 9.315 0 11.5 0c2.185 0 4.156.056 5.911.167 1.756.11 2.848.222 3.278.333z"/>
</svg>
